<?xml version="1.0" encoding="UTF-8" standalone="no"?>
<svg width="1322px" height="410px" viewBox="0 0 1322 410" version="1.1" xmlns="http://www.w3.org/2000/svg" xmlns:xlink="http://www.w3.org/1999/xlink" xmlns:sketch="http://www.bohemiancoding.com/sketch/ns">
    <!-- Generator: Sketch 3.5.2 (25235) - http://www.bohemiancoding.com/sketch -->
    <title>Elixir</title>
    <desc>Created with Sketch.</desc>
    <defs></defs>
    <g id="Page-1" stroke="none" stroke-width="1" fill="none" fill-rule="evenodd" sketch:type="MSPage">
        <path d="M41.453125,377.529297 L41.453125,71.6210938 L1.16992188,65.5175781 L1.16992188,38.4179688 L255.564453,38.4179688 L262.400391,115.810547 L230.90625,115.810547 L215.769531,69.4238281 L98.8261719,66.25 L98.8261719,204.189453 L178.171875,202.724609 L185.496094,162.197266 L216.990234,162.197266 L216.990234,277.919922 L185.496094,277.919922 L178.416016,234.951172 L98.8261719,233.730469 L98.8261719,379.726562 L233.103516,374.355469 L260.691406,313.076172 L291.941406,322.353516 L277.537109,410 L0.4375,410 L0.4375,383.388672 L41.453125,377.529297 Z M361.277344,379.238281 L361.277344,38.6621094 L321.238281,33.7792969 L321.238281,10.5859375 L404.490234,0.087890625 L404.978516,0.087890625 L416.941406,8.38867188 L416.941406,379.238281 L458.445312,383.388672 L458.445312,410 L321.726562,410 L321.726562,383.388672 L361.277344,379.238281 Z M530.466797,379.238281 L530.466797,174.648438 L495.066406,164.638672 L495.066406,135.830078 L572.703125,125.820312 L573.923828,125.820312 L586.375,135.341797 L586.375,379.238281 L625.4375,383.388672 L625.4375,410 L490.916016,410 L490.916016,383.388672 L530.466797,379.238281 Z M530.100586,18.3984375 C536.529655,10.7486597 545.522078,6.92382812 557.078125,6.92382812 L557.322266,6.92382812 C564.158237,6.92382812 570.098933,8.51072632 575.144531,11.6845703 C580.190129,14.8584143 584.055651,19.0494531 586.741211,24.2578125 C589.426771,29.4661719 590.769531,34.9999707 590.769531,40.859375 C590.769531,52.2526611 587.514355,61.6112915 581.003906,68.9355469 C574.493457,76.2598022 565.053447,79.921875 552.683594,79.921875 L552.439453,79.921875 C542.999302,79.921875 535.308949,76.7480786 529.368164,70.4003906 C523.427379,64.0527026 520.457031,56.077522 520.457031,46.4746094 C520.457031,35.4068457 523.671517,26.0482153 530.100586,18.3984375 L530.100586,18.3984375 Z M675.974609,379.482422 L760.691406,271.328125 L678.171875,164.638672 L649.363281,158.291016 L649.363281,132.412109 L778.757812,132.412109 L778.757812,158.291016 L745.066406,164.638672 L788.035156,224.697266 L802.439453,246.669922 L814.890625,224.941406 L859.8125,164.638672 L823.923828,158.291016 L823.923828,132.412109 L931.589844,132.412109 L931.589844,158.291016 L901.072266,164.638672 L820.75,265.224609 L907.175781,379.726562 L935.740234,384.121094 L935.740234,410 L805.613281,410 L805.613281,384.121094 L837.595703,379.482422 L778.269531,292.568359 L765.818359,314.296875 L720.652344,379.238281 L760.935547,384.121094 L760.935547,410 L642.527344,410 L642.527344,384.121094 L675.974609,379.482422 Z M995.066406,379.238281 L995.066406,174.648438 L959.666016,164.638672 L959.666016,135.830078 L1037.30273,125.820312 L1038.52344,125.820312 L1050.97461,135.341797 L1050.97461,379.238281 L1090.03711,383.388672 L1090.03711,410 L955.515625,410 L955.515625,383.388672 L995.066406,379.238281 Z M994.700195,18.3984375 C1001.12926,10.7486597 1010.12169,6.92382812 1021.67773,6.92382812 L1021.92187,6.92382812 C1028.75785,6.92382812 1034.69854,8.51072632 1039.74414,11.6845703 C1044.78974,14.8584143 1048.65526,19.0494531 1051.34082,24.2578125 C1054.02638,29.4661719 1055.36914,34.9999707 1055.36914,40.859375 C1055.36914,52.2526611 1052.11396,61.6112915 1045.60352,68.9355469 C1039.09307,76.2598022 1029.65306,79.921875 1017.2832,79.921875 L1017.03906,79.921875 C1007.59891,79.921875 999.908558,76.7480786 993.967773,70.4003906 C988.026989,64.0527026 985.056641,56.077522 985.056641,46.4746094 C985.056641,35.4068457 988.271127,26.0482153 994.700195,18.3984375 L994.700195,18.3984375 Z M1164.74414,379.726562 L1164.74414,174.648438 L1130.07617,164.882812 L1130.07617,135.585938 L1199.90039,125.820312 L1201.12109,125.820312 L1212.83984,135.341797 L1212.83984,150.722656 L1212.35156,182.460938 L1212.83984,182.460938 C1215.76955,177.089817 1221.42541,169.88774 1229.80762,160.854492 C1238.18982,151.821244 1249.01328,143.561235 1262.27832,136.074219 C1275.54336,128.587202 1289.9882,124.84375 1305.61328,124.84375 C1311.96097,124.84375 1317.33201,125.738923 1321.72656,127.529297 L1321.72656,187.587891 C1318.6341,185.797517 1314.52444,184.291998 1309.39746,183.071289 C1304.27048,181.85058 1298.77737,181.240234 1292.91797,181.240234 C1276.47908,181.240234 1262.27838,183.23403 1250.31543,187.22168 C1238.35248,191.20933 1228.3835,196.214163 1220.4082,202.236328 L1220.4082,379.482422 L1284.61719,383.876953 L1284.61719,410 L1126.41406,410 L1126.41406,383.632812 L1164.74414,379.726562 Z" id="Elixir" fill="#FFFFFF" sketch:type="MSShapeGroup"></path>
    </g>
</svg>