<?xml version="1.0" encoding="utf-8"?>
<!-- Generated by IcoMoon.io -->
<!DOCTYPE svg PUBLIC "-//W3C//DTD SVG 1.1//EN" "http://www.w3.org/Graphics/SVG/1.1/DTD/svg11.dtd">
<svg version="1.1" xmlns="http://www.w3.org/2000/svg" xmlns:xlink="http://www.w3.org/1999/xlink" width="64" height="64" viewBox="0 0 64 64">
<g id="icomoon-ignore">
	<line stroke-width="1" x1="" y1="" x2="" y2="" stroke="#293847" opacity=""></line>
</g>
	<path d="M30.031 0.62c-0.123 0.010-0.507 0.044-0.862 0.069-3.185 0.261-6.577 1.118-9.625 2.422-4.618 1.989-8.729 5.090-11.968 9.049-3.614 4.411-6.011 9.905-6.759 15.508-0.226 1.703-0.251 2.092-0.251 4.382s0.025 2.678 0.251 4.382c0.748 5.602 3.146 11.097 6.759 15.508 1.31 1.595 2.944 3.234 4.534 4.534 4.421 3.618 9.905 6.011 15.508 6.759 1.703 0.226 2.092 0.251 4.382 0.251s2.678-0.025 4.382-0.251c5.602-0.748 11.087-3.141 15.508-6.759 1.59-1.3 3.225-2.939 4.534-4.534 3.614-4.411 6.011-9.905 6.759-15.508 0.226-1.703 0.251-2.092 0.251-4.382s-0.025-2.678-0.251-4.382c-0.748-5.602-3.146-11.097-6.759-15.508-1.31-1.595-2.944-3.234-4.534-4.534-3.077-2.516-6.676-4.455-10.462-5.632-2.092-0.65-4.13-1.058-6.523-1.31-0.492-0.049-4.406-0.103-4.874-0.064zM33.403 3.643c2.624 0.167 5.095 0.63 7.409 1.383 2.452 0.798 5.164 2.132 7.188 3.53 3.687 2.555 6.686 5.829 8.798 9.615 1.423 2.545 2.462 5.332 3.018 8.069 0.537 2.663 0.729 5.012 0.586 7.237-0.286 4.534-1.487 8.665-3.628 12.495-1.9 3.402-4.618 6.494-7.813 8.871-2.457 1.831-5.218 3.269-8.148 4.229-2.939 0.96-6.558 1.506-9.403 1.413-4.401-0.143-8.438-1.162-12.224-3.082-1.182-0.601-1.723-0.911-2.718-1.566-1.959-1.285-3.584-2.649-5.228-4.396-3.146-3.343-5.465-7.513-6.69-12.022-0.738-2.722-1.118-6.139-0.96-8.674 0.281-4.48 1.334-8.286 3.353-12.086 2.511-4.726 6.469-8.778 11.136-11.382 2.462-1.378 5.258-2.442 7.877-2.998 2.604-0.551 5.233-0.773 7.449-0.635z" fill="#293847"></path>
	<path d="M30.105 6.946c-3.033 0.217-4.805 0.63-7.636 1.792-1.516 0.625-2.092 0.896-2.949 1.398-2.107 1.226-3.525 2.324-5.322 4.116-1.822 1.822-2.816 3.106-4.111 5.317-1.127 1.93-2.447 5.41-2.821 7.458-0.354 1.935-0.512 4.8-0.374 6.794 0.182 2.649 0.478 4.165 1.216 6.238 0.295 0.837 0.999 2.55 1.354 3.313 0.571 1.216 1.694 2.964 2.767 4.308 1.063 1.334 2.806 3.077 4.14 4.14 1.344 1.073 3.092 2.196 4.308 2.767 0.763 0.354 2.476 1.058 3.313 1.354 2.073 0.738 3.589 1.034 6.238 1.216 1.994 0.138 4.859-0.020 6.794-0.374 2.048-0.374 5.529-1.694 7.458-2.821 2.21-1.295 3.495-2.289 5.317-4.111 1.792-1.797 2.89-3.215 4.116-5.322 0.502-0.857 0.773-1.433 1.398-2.949 0.994-2.427 1.418-3.988 1.644-6.11 0.276-2.526 0.276-4.318 0-6.843-0.226-2.102-0.62-3.574-1.6-6.001-0.758-1.876-1.231-2.791-2.25-4.386-1.649-2.575-4.721-5.647-7.296-7.296-1.595-1.019-2.511-1.492-4.386-2.25-2.865-1.157-4.51-1.536-7.65-1.753-0.832-0.054-2.816-0.054-3.668 0.005zM21.735 14.863c0.276 0.123 0.601 0.448 0.729 0.738 0.143 0.315 0.143 0.876 0 1.196-0.118 0.266-0.478 0.635-0.699 0.729l-0.153 0.059v1.762h3.151v-1.762l-0.153-0.059c-0.222-0.094-0.581-0.463-0.699-0.729-0.143-0.32-0.143-0.881 0-1.196 0.133-0.295 0.453-0.615 0.748-0.748 0.315-0.143 0.876-0.143 1.191 0 0.295 0.133 0.615 0.453 0.748 0.748 0.143 0.315 0.143 0.876 0 1.196-0.118 0.266-0.478 0.635-0.699 0.729l-0.153 0.059v1.762h3.2v-1.762l-0.153-0.059c-0.222-0.094-0.581-0.463-0.699-0.729-0.143-0.32-0.143-0.881 0-1.196 0.133-0.295 0.453-0.615 0.748-0.748 0.315-0.143 0.876-0.143 1.191 0 0.295 0.133 0.615 0.453 0.748 0.748 0.143 0.315 0.143 0.876 0 1.196-0.118 0.266-0.478 0.635-0.699 0.729l-0.153 0.059v1.762h3.151v-1.762l-0.153-0.059c-0.222-0.094-0.581-0.463-0.699-0.729-0.074-0.167-0.103-0.33-0.103-0.601 0-0.448 0.113-0.734 0.414-1.034s0.586-0.414 1.034-0.414c0.448 0 0.734 0.113 1.034 0.414s0.414 0.586 0.414 1.034c0 0.271-0.030 0.433-0.103 0.601-0.118 0.266-0.478 0.635-0.699 0.729l-0.153 0.059v1.762h3.2v-1.762l-0.153-0.059c-0.222-0.094-0.581-0.463-0.699-0.729-0.143-0.32-0.143-0.881 0-1.196 0.133-0.295 0.453-0.615 0.748-0.748 0.315-0.143 0.876-0.143 1.191 0 0.295 0.133 0.615 0.453 0.748 0.748 0.143 0.315 0.143 0.876 0 1.196-0.118 0.266-0.478 0.635-0.699 0.729l-0.153 0.059v1.762h3.151v-1.762l-0.153-0.059c-0.222-0.094-0.581-0.463-0.699-0.729-0.074-0.167-0.103-0.33-0.103-0.601 0-0.448 0.113-0.734 0.414-1.034s0.586-0.414 1.034-0.414c0.448 0 0.734 0.113 1.034 0.414s0.414 0.586 0.414 1.034c0 0.271-0.030 0.433-0.103 0.601-0.118 0.266-0.478 0.635-0.699 0.729l-0.153 0.059v1.762h0.876c0.812 0 0.886 0.010 1.118 0.118 0.29 0.133 0.379 0.226 0.512 0.522 0.089 0.187 0.103 0.325 0.103 0.921v0.704h1.812l0.059-0.153c0.094-0.222 0.463-0.581 0.729-0.699 0.32-0.143 0.881-0.143 1.196 0 0.295 0.133 0.615 0.453 0.748 0.748 0.143 0.315 0.143 0.876 0 1.191-0.133 0.295-0.453 0.615-0.748 0.748-0.315 0.143-0.876 0.143-1.196 0-0.266-0.118-0.635-0.478-0.729-0.699l-0.059-0.153h-1.812v3.151h1.812l0.059-0.153c0.094-0.222 0.463-0.581 0.729-0.699 0.32-0.143 0.881-0.143 1.196 0 0.295 0.133 0.615 0.453 0.748 0.748 0.143 0.315 0.143 0.876 0 1.191-0.133 0.295-0.453 0.615-0.748 0.748-0.315 0.143-0.876 0.143-1.196 0-0.266-0.118-0.635-0.478-0.729-0.699l-0.059-0.153h-1.812v3.2h1.812l0.059-0.153c0.094-0.222 0.463-0.581 0.729-0.699 0.32-0.143 0.881-0.143 1.196 0 0.295 0.133 0.615 0.453 0.748 0.748 0.143 0.315 0.143 0.876 0 1.191-0.133 0.295-0.453 0.615-0.748 0.748-0.315 0.143-0.876 0.143-1.196 0-0.266-0.118-0.635-0.478-0.729-0.699l-0.059-0.153h-1.812v3.151h1.812l0.059-0.153c0.094-0.222 0.463-0.581 0.729-0.699 0.32-0.143 0.881-0.143 1.196 0 0.295 0.133 0.615 0.453 0.748 0.748 0.143 0.315 0.143 0.876 0 1.191-0.133 0.295-0.453 0.615-0.748 0.748-0.315 0.143-0.876 0.143-1.196 0-0.266-0.118-0.635-0.478-0.729-0.699l-0.059-0.153h-1.812v3.2h1.812l0.059-0.153c0.094-0.222 0.463-0.581 0.729-0.699 0.32-0.143 0.881-0.143 1.196 0 0.295 0.133 0.615 0.453 0.748 0.748 0.143 0.315 0.143 0.876 0 1.191-0.133 0.295-0.453 0.615-0.748 0.748-0.315 0.143-0.876 0.143-1.196 0-0.266-0.118-0.635-0.478-0.729-0.699l-0.059-0.153h-1.812v3.151h1.812l0.059-0.153c0.094-0.222 0.463-0.581 0.729-0.699 0.32-0.143 0.881-0.143 1.196 0 0.295 0.133 0.615 0.453 0.748 0.748 0.143 0.315 0.143 0.876 0 1.191-0.133 0.295-0.453 0.615-0.748 0.748-0.315 0.143-0.876 0.143-1.196 0-0.266-0.118-0.635-0.478-0.729-0.699l-0.059-0.153h-1.812v0.748c0 0.65-0.015 0.783-0.103 0.975-0.133 0.295-0.222 0.389-0.512 0.522-0.231 0.108-0.305 0.118-1.118 0.118h-0.876v1.812l0.153 0.059c0.222 0.094 0.581 0.463 0.699 0.729 0.143 0.32 0.143 0.881 0 1.196-0.133 0.295-0.453 0.615-0.748 0.748-0.315 0.143-0.876 0.143-1.191 0-0.295-0.133-0.615-0.453-0.748-0.748-0.143-0.315-0.143-0.876 0-1.196 0.118-0.266 0.478-0.635 0.699-0.729l0.153-0.059v-1.812h-3.151v1.812l0.153 0.059c0.222 0.094 0.581 0.463 0.699 0.729 0.143 0.32 0.143 0.881 0 1.196-0.133 0.295-0.453 0.615-0.748 0.748-0.315 0.143-0.876 0.143-1.191 0-0.295-0.133-0.615-0.453-0.748-0.748-0.143-0.315-0.143-0.876 0-1.196 0.118-0.266 0.478-0.635 0.699-0.729l0.153-0.059v-1.812h-3.2v1.812l0.153 0.059c0.222 0.094 0.581 0.463 0.699 0.729 0.143 0.32 0.143 0.881 0 1.196-0.133 0.295-0.453 0.615-0.748 0.748-0.315 0.143-0.876 0.143-1.191 0-0.295-0.133-0.615-0.453-0.748-0.748-0.143-0.315-0.143-0.876 0-1.196 0.118-0.266 0.478-0.635 0.699-0.729l0.153-0.059v-1.812h-3.151v1.812l0.153 0.059c0.222 0.094 0.581 0.463 0.699 0.729 0.143 0.32 0.143 0.881 0 1.196-0.133 0.295-0.453 0.615-0.748 0.748-0.315 0.143-0.876 0.143-1.191 0-0.295-0.133-0.615-0.453-0.748-0.748-0.143-0.315-0.143-0.876 0-1.196 0.118-0.266 0.478-0.635 0.699-0.729l0.153-0.059v-1.812h-3.2v1.812l0.153 0.059c0.222 0.094 0.581 0.463 0.699 0.729 0.143 0.32 0.143 0.881 0 1.196-0.133 0.295-0.453 0.615-0.748 0.748-0.315 0.143-0.876 0.143-1.191 0-0.295-0.133-0.615-0.453-0.748-0.748-0.143-0.315-0.143-0.876 0-1.196 0.118-0.266 0.478-0.635 0.699-0.729l0.153-0.059v-1.812h-3.151v1.812l0.153 0.059c0.222 0.094 0.581 0.463 0.699 0.729 0.143 0.32 0.143 0.881 0 1.196-0.133 0.295-0.453 0.615-0.748 0.748-0.315 0.143-0.876 0.143-1.191 0-0.295-0.133-0.615-0.453-0.748-0.748-0.143-0.315-0.143-0.876 0-1.196 0.118-0.266 0.478-0.635 0.699-0.729l0.153-0.059v-1.812h-0.576c-0.507 0-0.61-0.015-0.827-0.118-0.29-0.133-0.379-0.226-0.512-0.522-0.089-0.192-0.103-0.325-0.103-0.975v-0.748h-1.762l-0.059 0.153c-0.094 0.222-0.463 0.581-0.729 0.699-0.32 0.143-0.881 0.143-1.196 0-0.295-0.133-0.615-0.453-0.748-0.748-0.143-0.315-0.143-0.876 0-1.191 0.133-0.295 0.453-0.615 0.748-0.748 0.315-0.143 0.876-0.143 1.196 0 0.266 0.118 0.635 0.478 0.729 0.699l0.059 0.153h1.762v-3.151h-1.762l-0.059 0.153c-0.094 0.222-0.463 0.581-0.729 0.699-0.32 0.143-0.881 0.143-1.196 0-0.295-0.133-0.615-0.453-0.748-0.748-0.143-0.315-0.143-0.876 0-1.191 0.133-0.295 0.453-0.615 0.748-0.748 0.315-0.143 0.876-0.143 1.196 0 0.266 0.118 0.635 0.478 0.729 0.699l0.059 0.153h1.762v-3.2h-1.762l-0.059 0.153c-0.094 0.222-0.463 0.581-0.729 0.699-0.32 0.143-0.881 0.143-1.196 0-0.295-0.133-0.615-0.453-0.748-0.748-0.143-0.315-0.143-0.876 0-1.191 0.133-0.295 0.453-0.615 0.748-0.748 0.315-0.143 0.876-0.143 1.196 0 0.266 0.118 0.635 0.478 0.729 0.699l0.059 0.153h1.762v-3.151h-1.762l-0.059 0.153c-0.094 0.222-0.463 0.581-0.729 0.699-0.32 0.143-0.881 0.143-1.196 0-0.295-0.133-0.615-0.453-0.748-0.748-0.143-0.315-0.143-0.876 0-1.191 0.133-0.295 0.453-0.615 0.748-0.748 0.315-0.143 0.876-0.143 1.196 0 0.266 0.118 0.635 0.478 0.729 0.699l0.059 0.153h1.762v-3.2h-1.762l-0.059 0.153c-0.094 0.222-0.463 0.581-0.729 0.699-0.32 0.143-0.881 0.143-1.196 0-0.295-0.133-0.615-0.453-0.748-0.748-0.143-0.315-0.143-0.876 0-1.191 0.133-0.295 0.453-0.615 0.748-0.748 0.315-0.143 0.876-0.143 1.196 0 0.266 0.118 0.635 0.478 0.729 0.699l0.059 0.153h1.762v-3.151h-1.762l-0.059 0.153c-0.094 0.222-0.463 0.581-0.729 0.699-0.32 0.143-0.881 0.143-1.196 0-0.295-0.133-0.615-0.453-0.748-0.748-0.143-0.315-0.143-0.876 0-1.191 0.133-0.295 0.453-0.615 0.748-0.748 0.315-0.143 0.876-0.143 1.196 0 0.266 0.118 0.635 0.478 0.729 0.699l0.059 0.153h1.762v-0.704c0-0.596 0.015-0.734 0.103-0.921 0.133-0.295 0.222-0.389 0.512-0.522 0.217-0.103 0.32-0.118 0.827-0.118h0.576v-1.762l-0.153-0.059c-0.079-0.034-0.246-0.162-0.369-0.281-0.985-0.955-0.236-2.614 1.127-2.501 0.162 0.015 0.384 0.064 0.502 0.118z" fill="#293847"></path>
	<path d="M31.311 23.685c-3.545 0.256-6.233 2.757-6.986 6.498-0.32 1.57-0.345 3.589-0.074 5.189 0.497 2.924 2.102 5.13 4.485 6.154 1.477 0.635 3.564 0.827 5.292 0.487 2.826-0.556 4.982-2.801 5.642-5.868 0.074-0.335 0.084-0.468 0.044-0.482-0.034-0.010-0.857-0.015-1.826-0.010l-1.772 0.015-0.177 0.517c-0.433 1.265-0.99 1.974-1.895 2.412-0.512 0.251-0.901 0.34-1.6 0.379-1.354 0.069-2.437-0.394-3.313-1.408s-1.275-2.427-1.275-4.534c0.005-2.452 0.487-3.978 1.634-5.12 0.763-0.768 1.383-1.029 2.526-1.068 1.004-0.039 1.723 0.108 2.388 0.482 0.364 0.207 0.881 0.729 1.103 1.108 0.177 0.3 0.492 1.049 0.556 1.31l0.034 0.138h3.682v-0.197c0-0.29-0.133-0.881-0.305-1.369-0.581-1.654-1.807-3.062-3.318-3.815-0.866-0.433-2.043-0.729-3.244-0.822-0.748-0.054-0.832-0.054-1.6 0.005z" fill="#293847"></path>
</svg>
