<?xml version="1.0" encoding="UTF-8"?>
<!DOCTYPE svg PUBLIC "-//W3C//DTD SVG 1.1//EN" "http://www.w3.org/Graphics/SVG/1.1/DTD/svg11.dtd">
<svg version="1.1" xmlns="http://www.w3.org/2000/svg" xmlns:xlink="http://www.w3.org/1999/xlink" width="495" height="189"  xml:space="preserve" id="canvas1">
    <g id="scout-logo">
        <path d="M 106.88,2.68 C 111.55,2.45 116.23,2.37 120.89,2.31 120,5.45 118.87,8.59 118.91,11.91 118.77,23.95 118.95,36 118.85,48.04 118.97,54.96 118.2,62.07 120.57,68.72 116.09,69.69 111.48,69.77 106.97,68.89 108.04,64.67 109.13,60.4 108.99,56.01 108.97,41.75 109.03,27.49 108.96,13.23 109.01,9.6 107.85,6.13 106.88,2.68 Z M 106.88,2.68" />
        <path d="M 420.07,10.36 C 420.56,10.19 421.56,9.84 422.05,9.65 422.84,13.92 423.36,18.21 423.83,22.52 428.08,22.67 432.45,22.03 436.63,23.13 436.99,25.05 437.03,27.03 437.16,28.97 432.67,28.71 428.17,28.44 423.69,29.04 422.81,35.77 423.05,42.6 423.05,49.37 423.15,53.6 423.23,58.4 426.28,61.69 428.83,63.77 432.11,64.61 434.91,66.31 432.8,69.44 429.17,71.85 425.27,70.47 418.36,69.52 414.77,62.29 414.55,55.95 414.24,47.29 414.69,38.61 414.2,29.96 412.23,29.04 410.23,28.03 409.04,26.11 411.77,24.07 414.95,22.39 416.85,19.44 418.59,16.69 419.21,13.45 420.07,10.36 Z M 420.07,10.36" />
        <path d="M 188.35,21.75 C 191.73,18.91 192.04,13.97 195.17,10.92 196.12,14.67 196.69,18.49 197.45,22.28 201.72,22.33 205.99,22.52 210.21,23.15 210.35,25.08 210.39,27.03 210.39,28.97 205.96,28.68 201.52,28.47 197.12,29.01 196.16,35.75 196.4,42.55 196.44,49.32 196.63,53.25 196.75,57.52 199.01,60.91 201.01,63.77 204.76,64.19 207.8,65.31 207.01,69.55 202.57,71.93 198.57,70.39 192.39,69.28 188.53,63.39 188.07,57.43 187.41,48.27 188.13,39.05 187.63,29.88 185.61,28.88 183.61,27.83 181.64,26.76 183.88,25.11 186.23,23.59 188.35,21.75 Z M 188.35,21.75" />
        <path d="M 132.77,23.32 C 135.81,22.75 138.91,22.12 142.03,22.29 143.71,23.75 143.17,26.12 143.56,28.07 147.11,24.99 151.03,21.84 155.88,21.32 163.96,20.43 174.07,24.6 175.51,33.48 177.23,45.25 175,57.28 176.97,69.05 173.25,69.71 169.45,69.65 165.75,69 167.85,58.56 166.87,47.73 166.32,37.19 165.6,27.87 152.57,24.31 146.23,30.29 142.08,34.65 143.11,41.11 142.95,46.6 143.24,53.92 141.92,61.55 144.6,68.57 140.75,69.76 136.68,69.63 132.79,68.72 135.2,61.59 134.08,54 134.35,46.63 134.03,38.85 135.29,30.84 132.77,23.32 Z M 132.77,23.32" />
        <path d="M 271.17,23.03 C 274.17,22.08 277.36,22.49 280.45,22.41 280.75,24.23 281,26.04 281.23,27.87 285.07,24 289.91,20.01 295.77,21.83 295.77,24 295.72,26.17 295.65,28.36 291.2,29.13 285.24,28.68 282.85,33.4 279.61,40 280.56,47.6 280.35,54.71 280.17,59.49 280.73,64.27 282.24,68.83 278.52,69.43 274.75,69.63 270.99,69.57 272.28,54.11 271.95,38.51 271.17,23.03 Z M 271.17,23.03" />
        <path d="M 316,29.01 C 323.09,17.72 342.44,18.89 347.53,31.32 350.48,43.63 346.25,56.67 350.21,68.84 346.43,69.65 342.52,69.77 338.76,68.79 340.31,61.03 339.72,53.09 339.81,45.25 339.8,40.25 339.48,34.63 335.88,30.79 331.55,26.61 324,26.27 319.31,29.99 315.71,33.15 316.05,38.29 316.05,42.63 316.29,51.39 315.29,60.23 316.92,68.91 313.24,69.56 309.48,69.56 305.79,68.92 307,61.56 306.51,54.08 306.72,46.65 306.44,38.81 307.08,30.92 305.76,23.15 309.09,22.65 312.45,22.28 315.81,22.05 315.89,24.37 315.96,26.69 316,29.01 Z M 316,29.01" />
        <path d="M 452.65,44.44 C 455.39,44.29 458.15,44.31 460.89,44.47 461.8,56.24 461.09,68.07 461.13,79.87 470.55,79.8 479.97,79.49 489.4,79.59 492.13,79.04 492.37,82.12 492.33,84.03 492.48,87.95 492.07,91.87 491.44,95.73 481.84,91.97 471.4,93.73 461.39,93.53 461.16,111.67 461.41,129.81 461.21,147.95 461.04,155.61 463.07,164.27 469.65,168.97 475.33,173.08 482.68,173.04 489.39,172.8 486.75,177.76 483.37,182.31 479.72,186.53 466.12,191.04 449.77,183.53 444.4,170.17 439.33,158.52 441.28,145.57 440.93,133.25 440.45,119.99 441.93,106.61 440.12,93.44 435.24,93.4 430.37,93.37 425.51,92.99 425.47,90.65 424.91,88.19 425.75,85.93 431.88,83.51 438.65,81.69 443.09,76.44 451.15,67.87 451.71,55.51 452.65,44.44 Z M 452.65,44.44" />
        <path d="M 318.84,79.32 C 327.35,78.05 335.99,78.87 344.51,77.68 346.29,79.24 345.44,81.92 345.75,84 345.79,102.25 345.59,120.53 345.84,138.79 346.73,147.95 347.63,158.53 355.09,164.96 365.52,173.21 382.52,172.36 391.37,162.12 398.45,154.41 399.64,143.43 399.57,133.41 399.4,120.65 399.85,107.88 399.36,95.12 399.16,89.21 396.08,84.12 393.2,79.17 401.95,78.03 410.81,79.17 419.52,77.49 420.45,108.53 419.57,139.64 419.95,170.71 419.71,175.81 423.6,179.6 425.03,184.23 417.01,184.53 408.99,184.48 400.97,184.28 399.2,179.89 398.91,175.15 398.72,170.48 394.4,175.53 389.93,180.76 383.95,183.91 377.08,187.72 368.93,187.73 361.29,187.52 350.84,187.28 340.13,182.64 334.05,173.89 327.19,164.52 326.03,152.51 325.27,141.28 325.12,125.25 325.39,109.21 325.19,93.2 325.51,87.73 321.83,83.45 318.84,79.32 Z M 318.84,79.32" />
        <path d="M 96.65,34.2 C 98.31,41.73 98.33,49.73 96.6,57.24 86.48,50.75 75.04,45.47 62.79,45.48 53.32,45.39 42.75,47.35 36.13,54.71 31.69,59.49 31.01,66.71 32.81,72.76 35.53,79.68 41.81,84.4 47.99,88.11 67.8,99.64 91.85,105.43 107.03,123.76 109.4,109.21 117.53,95.41 130.08,87.43 146.89,76.32 168.21,73.72 187.83,76.8 190.81,77.55 195.55,77.2 196.15,81.21 196.84,86.84 196.32,92.55 196.32,98.2 191.93,98.63 188.65,95.27 184.8,93.79 177.91,90.41 170.05,90.41 162.57,90.89 148.95,92.07 136.39,101.41 131.68,114.29 125.55,131.09 131.33,151.55 145.77,162.27 163.48,176.23 189.57,175.71 208.13,163.63 203.64,154.57 199.16,145.04 199.57,134.65 198.64,120.59 203.25,106 213.04,95.71 230.84,75.83 261.87,70.29 286.03,80.92 305.75,89.95 319.2,111.63 317.68,133.39 317.52,143.81 313.47,153.85 307.72,162.43 295.84,179.08 275.08,188.73 254.71,187.56 237.39,187.37 221.35,178.25 209.97,165.59 205.88,171.11 203.55,177.81 199.01,182.99 194.12,185.4 188.64,186.36 183.25,187 169.63,188.2 155.35,188.2 142.6,182.56 128.4,177.27 116.75,166.32 109.64,153.05 103.59,166.85 91.75,177.64 77.71,182.96 57.44,191.51 34.43,189.56 13.84,183.2 11.52,182.33 8.37,181.6 7.95,178.68 5.68,170.89 3.75,162.96 2.75,154.91 16.64,163.99 32.28,171.75 49.23,171.91 61.13,172.57 74.15,168.69 81.73,159.04 85.91,154.07 86.01,146.92 84.43,140.92 81.8,132.33 73.84,127.17 66.53,122.87 52.27,115.2 36.43,110.45 23.24,100.83 15.19,95.32 8.48,87.08 6.64,77.32 5.49,68.07 5.92,57.97 11.47,50.09 19.24,38.91 32.61,33.33 45.57,30.88 62.49,28.05 80.31,28.77 96.65,34.2 Z M 248.59,91.48 C 241.41,93.33 234.65,97.36 230.17,103.33 224.28,110.57 221.89,120.11 221.79,129.31 222.48,142.27 226.89,155.72 236.88,164.51 250.88,177.99 276.16,174.68 287.41,159.25 294.11,150.41 296.41,138.68 294.56,127.85 293.33,116.48 288.61,105.01 279.52,97.72 271.08,90.61 259.09,88.89 248.59,91.48 Z M 248.59,91.48" />
        <path d="M 374.73,28.01 C 369.73,29.28 367.15,34.04 365.11,38.35 374.25,38.69 383.41,38.45 392.57,38.41 391.73,30.03 382.35,25.16 374.73,28.01 Z M 397.65,29.05 C 401.41,32.84 403.01,38.24 402.37,43.51 390.04,45.03 377.56,43.57 365.17,44.39 364.67,53.81 372,62.73 381.33,64.08 387.57,65.68 393.83,63.55 399.83,61.91 399.33,64.44 399.08,67.55 396.23,68.55 383.73,73.55 367.44,70.63 359.11,59.53 351.68,50.63 353.07,35.96 361.69,28.32 371.11,18.8 388.95,18.33 397.65,29.05 Z M 397.65,29.05" />
        <path d="M 223.71,38.4 C 232.8,38.92 241.93,38.84 251.04,38.43 249.96,33.91 247.47,29.21 242.59,28.03 234.61,25.07 225.72,30.33 223.71,38.4 Z M 250.28,24.29 C 257.11,27.99 261.55,35.76 261,43.53 248.52,45.12 235.87,43.31 223.36,44.65 223.83,52.35 227.83,60.4 235.57,62.93 243.05,66.32 251.16,64.08 258.57,61.8 257.87,64.4 257.43,67.88 254.41,68.81 240.29,74.24 220.69,69.45 214.52,54.53 210.87,45.16 213.35,33.25 221.29,26.79 229.43,20.6 241.27,19.08 250.28,24.29 Z M 250.28,24.29" />
    </g>
</svg>