<?xml version="1.0" standalone="no"?>
<!DOCTYPE svg PUBLIC "-//W3C//DTD SVG 20010904//EN"
 "http://www.w3.org/TR/2001/REC-SVG-20010904/DTD/svg10.dtd">
<svg version="1.0" xmlns="http://www.w3.org/2000/svg"
 width="601.000000pt" height="150.000000pt" viewBox="0 0 601.000000 150.000000"
 preserveAspectRatio="xMidYMid meet">
<metadata>
Created by potrace 1.10, written by Peter Selinger 2001-2011
</metadata>
<g transform="translate(0.000000,150.000000) scale(0.100000,-0.100000)"
fill="#000000" stroke="none">
<path d="M346 1484 c-158 -38 -293 -175 -331 -335 -21 -92 -22 -709 0 -792 41
-158 143 -269 301 -329 l59 -23 2625 0 2625 0 59 23 c158 60 260 171 301 329
12 45 15 128 15 398 0 370 -5 411 -56 506 -34 61 -122 149 -183 183 -110 59
63 56 -2766 55 -2207 -1 -2599 -3 -2649 -15z m859 -264 c174 -18 358 -88 506
-192 76 -53 217 -183 251 -231 l20 -28 -55 -72 c-130 -170 -318 -313 -500
-381 -159 -60 -359 -73 -517 -36 -101 25 -237 88 -346 160 -84 56 -317 282
-328 318 -9 28 48 97 154 186 213 180 441 272 700 284 14 1 66 -3 115 -8z
m1337 -58 c25 -10 26 -13 16 -52 -9 -33 -14 -40 -27 -34 -9 5 -43 10 -76 12
-53 3 -64 1 -87 -21 -31 -29 -47 -79 -40 -126 5 -35 35 -70 154 -173 82 -72
108 -122 108 -206 0 -102 -40 -171 -125 -215 -48 -24 -149 -29 -209 -8 -38 13
-38 14 -32 54 4 23 8 43 10 44 2 2 19 -4 39 -12 47 -19 120 -19 158 1 33 17
69 82 69 124 0 47 -37 106 -96 156 -136 115 -174 171 -174 259 0 90 54 169
135 200 44 16 133 15 177 -3z m1437 -29 c72 -274 97 -376 125 -496 l33 -142
11 55 c7 30 42 182 79 338 l67 282 53 0 c47 0 53 -3 57 -22 4 -21 47 -757 46
-800 0 -14 -9 -18 -44 -18 l-43 0 -8 148 c-4 81 -11 237 -14 347 l-6 200 -79
-315 c-105 -422 -91 -380 -126 -380 -19 0 -31 6 -34 18 -16 51 -137 536 -147
590 -6 34 -13 61 -15 60 -1 -2 -7 -116 -13 -253 -6 -138 -14 -287 -17 -332
l-6 -83 -39 0 c-48 0 -46 -47 -17 453 l22 387 53 0 c52 0 52 0 62 -37z m-1000
-229 c49 -44 73 -110 75 -208 l1 -71 -137 -3 -138 -3 0 -37 c0 -57 18 -110 50
-145 26 -29 34 -32 87 -32 32 0 68 4 80 8 18 7 22 3 28 -24 9 -40 0 -48 -69
-59 -145 -24 -237 45 -266 201 -30 158 17 324 109 386 25 17 48 23 87 23 48 0
59 -4 93 -36z m460 0 c49 -44 73 -110 75 -208 l1 -71 -137 -3 -138 -3 0 -37
c0 -57 18 -110 50 -145 26 -29 34 -32 87 -32 32 0 68 4 80 8 18 7 22 3 28 -24
9 -40 0 -48 -69 -59 -145 -24 -237 45 -266 201 -30 158 17 324 109 386 25 17
48 23 87 23 48 0 59 -4 93 -36z m1408 16 c99 -60 140 -273 88 -448 -20 -68
-86 -138 -139 -147 -89 -17 -169 34 -207 133 -18 46 -23 78 -23 167 -1 158 33
244 119 296 41 25 120 25 162 -1z m303 -35 c4 -39 7 -45 13 -28 13 36 74 83
107 83 29 0 30 -2 30 -43 0 -42 -1 -44 -39 -56 -82 -24 -101 -84 -101 -328 l0
-183 -44 0 -44 0 -4 298 c-3 163 -3 301 0 305 2 4 20 7 40 5 36 -3 37 -4 42
-53z m499 19 c49 -44 73 -110 75 -208 l1 -71 -137 -3 -138 -3 0 -37 c0 -57 18
-110 50 -145 26 -29 34 -32 87 -32 32 0 68 4 80 8 18 7 22 3 28 -24 9 -40 0
-48 -69 -59 -145 -24 -237 45 -266 201 -30 158 17 324 109 386 25 17 48 23 87
23 48 0 59 -4 93 -36z"/>
<path d="M1003 1060 c-121 -40 -216 -158 -229 -286 -25 -243 219 -431 454
-350 70 24 153 100 189 174 24 49 28 69 28 142 0 71 -4 94 -26 140 -74 156
-252 233 -416 180z m195 -151 c29 -15 54 -37 74 -68 26 -41 29 -53 26 -107 -7
-123 -101 -198 -225 -179 -80 12 -153 97 -153 180 0 33 2 35 31 35 72 0 129
54 129 124 0 35 1 36 37 36 20 0 57 -10 81 -21z"/>
<path d="M2828 843 c-27 -30 -48 -81 -48 -119 0 -23 2 -24 90 -24 l90 0 0 35
c0 20 -7 52 -15 72 -28 67 -74 81 -117 36z"/>
<path d="M3288 843 c-27 -30 -48 -81 -48 -119 0 -23 2 -24 90 -24 l90 0 0 35
c0 20 -7 52 -15 72 -28 67 -74 81 -117 36z"/>
<path d="M4710 842 c-38 -38 -54 -119 -48 -247 7 -152 45 -210 124 -191 59 15
94 207 64 351 -13 65 -53 115 -90 115 -12 0 -34 -13 -50 -28z"/>
<path d="M5498 843 c-27 -30 -48 -81 -48 -119 0 -23 2 -24 90 -24 l90 0 0 35
c0 20 -7 52 -15 72 -28 67 -74 81 -117 36z"/>
</g>
</svg>
